<?xml version="1.0" standalone="no"?>
<!DOCTYPE svg PUBLIC "-//W3C//DTD SVG 20010904//EN"
 "http://www.w3.org/TR/2001/REC-SVG-20010904/DTD/svg10.dtd">
<svg version="1.0" xmlns="http://www.w3.org/2000/svg"
 width="640.000000pt" height="640.000000pt" viewBox="0 0 640.000000 640.000000"
 preserveAspectRatio="xMidYMid meet">
<metadata>
Created by potrace 1.11, written by Peter Selinger 2001-2013
</metadata>
<g transform="translate(0.000000,640.000000) scale(0.100000,-0.100000)"
fill="#000000" stroke="none">
<path d="M0 3200 l0 -1670 3200 0 3200 0 0 1670 0 1670 -3200 0 -3200 0 0
-1670z m1792 333 c-66 -85 -84 -158 -58 -245 44 -154 244 -252 425 -208 76 18
161 77 201 141 32 49 35 60 35 131 0 43 1 78 1 78 12 0 245 -86 262 -96 35
-23 43 -55 31 -121 -44 -239 -244 -372 -539 -360 -196 8 -334 69 -464 207 -73
78 -110 135 -142 224 -29 81 -49 202 -40 249 l7 37 155 0 156 0 -30 -37z
m2904 -8 c13 -71 -21 -227 -71 -325 -29 -57 -85 -134 -92 -126 -3 3 -20 -6
-37 -19 -52 -39 -128 -69 -236 -92 -45 -10 -273 -10 -324 0 -213 40 -388 179
-390 309 -1 21 -5 36 -11 34 -5 -1 -10 -34 -9 -72 0 -89 46 -195 110 -254 53
-49 145 -96 226 -115 80 -19 223 -19 313 0 93 19 217 82 288 145 31 28 57 47
57 42 0 -19 -126 -113 -195 -147 -182 -88 -443 -87 -609 3 -102 56 -182 169
-204 289 -12 68 -5 100 24 120 20 13 183 76 249 97 19 5 20 1 20 -72 1 -54 6
-87 18 -110 28 -52 94 -112 156 -141 49 -23 68 -26 161 -26 95 0 111 3 162 28
180 88 230 294 104 430 -14 15 -26 30 -26 33 0 2 70 4 155 4 l154 0 7 -35z
m-2826 -23 c0 -10 -10 -29 -22 -42 -20 -22 -23 -22 -26 -7 -4 20 23 67 38 67
6 0 10 -8 10 -18z m2505 -33 c11 -21 12 -30 3 -35 -14 -9 -48 31 -48 57 0 26
27 13 45 -22z m-2895 -32 c0 -48 26 -142 60 -217 l30 -65 -35 40 c-58 66 -75
111 -75 198 0 45 4 77 10 77 6 0 10 -15 10 -33z m3240 -171 c-11 -24 -36 -61
-55 -82 l-35 -39 24 50 c29 60 66 178 66 210 0 13 3 32 8 42 4 11 8 -13 10
-60 2 -63 -1 -87 -18 -121z"/>
<path d="M1515 3528 c-5 -28 10 -166 19 -175 2 -2 8 15 15 36 12 42 101 147
135 161 14 6 -12 9 -71 9 l-92 1 -6 -32z"/>
<path d="M2658 3282 c-13 -95 -92 -187 -211 -245 -64 -32 -101 -44 -202 -65
-41 -9 -252 -8 -295 1 -19 4 -48 9 -63 12 -48 9 -157 57 -190 82 -18 14 -4 -2
31 -35 112 -107 237 -158 418 -169 171 -10 346 46 429 138 55 61 98 161 103
237 5 72 -12 107 -20 44z"/>
<path d="M4516 3540 c34 -14 121 -117 137 -162 l14 -43 11 66 c26 144 23 149
-92 148 -59 0 -84 -3 -70 -9z"/>
</g>
</svg>
