<svg id="圖層_1" data-name="圖層 1" xmlns="http://www.w3.org/2000/svg" viewBox="0 0 800 800"><title>工作區域 5</title><path d="M130,602a7.87,7.87,0,0,1-7.77-7.77V509.35a7.87,7.87,0,0,1,7.77-7.77h8.57a7.42,7.42,0,0,1,5.53,2.31,7.58,7.58,0,0,1,2.24,5.46v29.38a.93.93,0,0,0,1.05,1.05h31.09c.61,0,.92-.35.92-1.05V509.35a7.87,7.87,0,0,1,7.77-7.77h8.3a7.42,7.42,0,0,1,5.53,2.31,7.58,7.58,0,0,1,2.24,5.46v84.83a7.58,7.58,0,0,1-2.24,5.47,7.41,7.41,0,0,1-5.53,2.31h-8.3a7.87,7.87,0,0,1-7.77-7.77V561.65a.82.82,0,0,0-.92-.92H147.35c-.71,0-1.05.31-1.05.92v32.54a7.58,7.58,0,0,1-2.24,5.47,7.41,7.41,0,0,1-5.53,2.31Z"/><path d="M244.23,603.8A47.53,47.53,0,0,1,221,597.48a6.49,6.49,0,0,1-3.29-4.87,6.67,6.67,0,0,1-.13-1.32,7.55,7.55,0,0,1,1.58-4.61l1.58-2.24a7.36,7.36,0,0,1,5-3.16,9.8,9.8,0,0,1,1.58-.13,9,9,0,0,1,4.48,1.18,26.12,26.12,0,0,0,12.91,3.82q9.09,0,9.09-6.06a4.19,4.19,0,0,0-.4-1.78,4.72,4.72,0,0,0-1.38-1.65q-1-.79-1.78-1.38a12.64,12.64,0,0,0-2.51-1.32c-1.14-.48-2-.88-2.7-1.19s-1.76-.74-3.29-1.32-2.61-1-3.23-1.25a60,60,0,0,1-7.11-3.36,39.92,39.92,0,0,1-6.26-4.41,18.86,18.86,0,0,1-4.87-6.39,19.28,19.28,0,0,1-1.78-8.36A21.75,21.75,0,0,1,226.71,530q8.17-6.72,21.6-6.72a42.19,42.19,0,0,1,20.94,5.53,6.43,6.43,0,0,1,3.3,4.74,7.08,7.08,0,0,1,.13,1.32,7,7,0,0,1-1.58,4.48l-1.45,1.84a8.1,8.1,0,0,1-5.14,3.16,13,13,0,0,1-1.84.13,9.57,9.57,0,0,1-4.35-1.05,20.86,20.86,0,0,0-9.22-2.5q-8.17,0-8.17,5.53a3.85,3.85,0,0,0,.26,1.45,4.12,4.12,0,0,0,.79,1.25c.35.39.7.77,1.05,1.12a5.22,5.22,0,0,0,1.52,1c.66.31,1.25.59,1.78.86s1.25.57,2.17.92,1.69.64,2.31.86,1.45.51,2.5.86,1.93.66,2.63.92a62.24,62.24,0,0,1,7.31,3.23,37.4,37.4,0,0,1,6.32,4.35,17.27,17.27,0,0,1,4.87,6.59,24,24,0,0,1-6.72,26.94Q259.38,603.81,244.23,603.8Z"/><path d="M309.75,603.8q-12.25,0-18-8.1t-5.79-23V532.93a7.58,7.58,0,0,1,2.24-5.47,7.42,7.42,0,0,1,5.53-2.31h8.43a7.87,7.87,0,0,1,7.77,7.77v36.75q0,7.77,2,10.74t6.78,3a12.91,12.91,0,0,0,6.72-1.65,19.56,19.56,0,0,0,5.53-5.46,2.64,2.64,0,0,0,.66-1.71V532.93a7.58,7.58,0,0,1,2.24-5.47,7.41,7.41,0,0,1,5.53-2.31h8.43a7.87,7.87,0,0,1,7.77,7.77v61.25a7.87,7.87,0,0,1-7.77,7.77h-4a9,9,0,0,1-6-2.17,8.78,8.78,0,0,1-3.1-5.47l-.39-2.63a.43.43,0,0,0-.4-.26.41.41,0,0,0-.39.26,39.77,39.77,0,0,1-10.8,9A26.77,26.77,0,0,1,309.75,603.8Z"/><path d="M428,602a7.4,7.4,0,0,1-5.53-2.31,7.57,7.57,0,0,1-2.24-5.47V522.53c0-.61-.35-.92-1.05-.92H400.88a7.4,7.4,0,0,1-5.53-2.31,7.56,7.56,0,0,1-2.24-5.47v-4.48a7.56,7.56,0,0,1,2.24-5.46,7.41,7.41,0,0,1,5.53-2.31h63a7.87,7.87,0,0,1,7.78,7.77v4.48a7.87,7.87,0,0,1-7.78,7.77H445.27a.82.82,0,0,0-.92.92v71.66a7.87,7.87,0,0,1-7.77,7.77Z"/><path d="M493.8,514.49a14.49,14.49,0,0,1-9.95-3.42,11.23,11.23,0,0,1-3.89-8.83,11.43,11.43,0,0,1,3.89-8.89,14.33,14.33,0,0,1,9.95-3.49,13.91,13.91,0,0,1,9.75,3.49,11.52,11.52,0,0,1,3.82,8.89,11.31,11.31,0,0,1-3.82,8.83A14.06,14.06,0,0,1,493.8,514.49ZM489.59,602a7.4,7.4,0,0,1-5.53-2.31,7.57,7.57,0,0,1-2.24-5.47V532.93a7.57,7.57,0,0,1,2.24-5.47,7.41,7.41,0,0,1,5.53-2.31h8.3a7.87,7.87,0,0,1,7.77,7.77v61.25a7.87,7.87,0,0,1-7.77,7.77Z"/><path d="M529.42,602a7.4,7.4,0,0,1-5.53-2.31,7.57,7.57,0,0,1-2.24-5.47V532.93a7.57,7.57,0,0,1,2.24-5.47,7.41,7.41,0,0,1,5.53-2.31h4a9,9,0,0,1,6,2.17,8.87,8.87,0,0,1,3.1,5.6l.26,1.58c0,.18.11.26.33.26a.65.65,0,0,0,.46-.13q11.59-11.33,24.37-11.33,12.12,0,18,8.17t5.86,23.05v39.65a7.59,7.59,0,0,1-2.24,5.47A7.4,7.4,0,0,1,584,602h-8.43a7.4,7.4,0,0,1-5.53-2.31,7.57,7.57,0,0,1-2.24-5.47V557.44q0-7.64-2.1-10.61t-6.85-3a13,13,0,0,0-6.25,1.45,35.19,35.19,0,0,0-6.39,4.74,2.16,2.16,0,0,0-.66,1.58v42.55a7.87,7.87,0,0,1-7.77,7.77Z"/><path d="M634.47,634.63a62.42,62.42,0,0,1-16.27-1.91,25.28,25.28,0,0,1-11.53-6.39,15,15,0,0,1-4.48-11.06,14.28,14.28,0,0,1,2.7-8.43,20.91,20.91,0,0,1,8-6.45.82.82,0,0,0,.26-.59.47.47,0,0,0-.26-.46,15.44,15.44,0,0,1-4.48-20.75,21.06,21.06,0,0,1,5.93-6.39.78.78,0,0,0,.26-.53.43.43,0,0,0-.26-.39,25.61,25.61,0,0,1-7.25-8.3,22.64,22.64,0,0,1-2.9-11.33,25.88,25.88,0,0,1,4.68-15.48,27.17,27.17,0,0,1,11.79-9.48,40.32,40.32,0,0,1,15.67-3,37.94,37.94,0,0,1,11.2,1.58,8.09,8.09,0,0,0,2,.26h19.37a7.42,7.42,0,0,1,5.53,2.31,7.58,7.58,0,0,1,2.24,5.47v1.84a7.65,7.65,0,0,1-7.77,7.77h-3a.65.65,0,0,0-.59.33.59.59,0,0,0-.06.59,19.86,19.86,0,0,1,1.71,8.43q0,12.78-8.5,19.3t-22.07,6.52a29.71,29.71,0,0,1-8-1.18,1.57,1.57,0,0,0-1.71.53,6.51,6.51,0,0,0-1.71,4.61,4.06,4.06,0,0,0,2.63,4q2.63,1.18,8.69,1.18H648.3q29.51,0,29.51,19.76,0,12.25-11.79,20T634.47,634.63Zm3.69-15q7.37,0,12.05-2.44t4.68-6.12a4.34,4.34,0,0,0-2.7-4.35q-2.7-1.18-8.5-1.18h-7.25a55.86,55.86,0,0,1-10-.66H626a1.61,1.61,0,0,0-1.19.39,8.52,8.52,0,0,0-3,6.19q0,4.08,4.42,6.12T638.15,619.61Zm-1.84-56a8.91,8.91,0,0,0,7-3.1q2.7-3.09,2.7-8.89t-2.7-8.83a9,9,0,0,0-7-3,8.9,8.9,0,0,0-7,3.1q-2.71,3.1-2.7,8.76t2.7,8.89A8.9,8.9,0,0,0,636.31,563.63Z"/><path d="M390,222.19q9.93,0,9.8,10.73l-4.5,33.78q-.27,6-5.17,6-5.3,0-5.43-6l-4.38-33.78Q379.92,222.19,390,222.19Zm16.29,10.73q-.4-10.73,9.67-10.73t9.8,10.73l-4.5,33.78q-.27,6-5.17,6-5.3,0-5.43-6Z"/><path d="M263.54,434.4a12.54,12.54,0,0,1-10.37-5.46l-50.9-74.33a12.56,12.56,0,0,1-.54-13.32l50.9-89.2a12.56,12.56,0,1,1,21.81,12.45l-47,82.37,46.46,67.84a12.56,12.56,0,0,1-10.35,19.65Z"/><path d="M277.92,241.5a12.56,12.56,0,0,1-10.67-19.16l31.53-51a12.56,12.56,0,0,1,20.87-.74l36.79,51a12.56,12.56,0,1,1-20.37,14.69l-25.8-35.77-21.65,35A12.56,12.56,0,0,1,277.92,241.5Z"/><path d="M536.46,434.4a12.56,12.56,0,0,1-10.35-19.65l46.46-67.84-47-82.37a12.56,12.56,0,1,1,21.81-12.45l50.9,89.2a12.56,12.56,0,0,1-.54,13.32l-50.9,74.33A12.54,12.54,0,0,1,536.46,434.4Z"/><path d="M522.08,241.5a12.54,12.54,0,0,1-10.69-6l-21.66-35-25.79,35.77a12.56,12.56,0,1,1-20.37-14.69l36.78-51a12.33,12.33,0,0,1,10.63-5.2,12.55,12.55,0,0,1,10.23,5.95l31.53,51a12.56,12.56,0,0,1-10.67,19.16Z"/><path d="M312.47,349.65a15.07,15.07,0,0,1-15.07-15.07V324.24a15.07,15.07,0,0,1,30.14,0v10.34A15.07,15.07,0,0,1,312.47,349.65Z"/><path d="M493.31,352.08A15.07,15.07,0,0,1,478.24,337V326.67a15.07,15.07,0,1,1,30.14,0V337A15.07,15.07,0,0,1,493.31,352.08Z"/><path d="M442.74,415.69l-31.16-55.54,19.18-33.69A12.56,12.56,0,0,0,408.93,314L351.1,415.62A12.56,12.56,0,1,0,372.93,428l24.14-42.41L420.83,428a12.56,12.56,0,0,0,21.91-12.29Z"/></svg>